# xmcd
#
# Track frame offsets:
#	150
#	31993
#	56424
#	84244
#	115941
#	127008
#	156283
#	180246
#	195345
#
# Disc length: 2954 seconds
#
# Revision: 0
# Processed by: cddbd v1.5.2PL0 Copyright (c) Steve Scherf et al.
# Submitted via: audiograbber 1.83.01
#
DISCID=670b8809
DTITLE=Beth Hart - La Cigale, Paris, France - 20.06.2012 (2/2)
DYEAR=2012
DGENRE=Blues
TTITLE0=Well, Well
TTITLE1=For My Friend
TTITLE2=Something's Got a Hold On Me
TTITLE3=I'll Take Care of You
TTITLE4=(1st encore)
TTITLE5=So What
TTITLE6=Don't Explain
TTITLE7=(2nd encore)
TTITLE8=My California
EXTD=
EXTT0=
EXTT1=
EXTT2=
EXTT3=
EXTT4=
EXTT5=
EXTT6=
EXTT7=
EXTT8=
PLAYORDER=
